<?xml version="1.0" encoding="utf-8"?>
<!-- Generator: Adobe Illustrator 16.0.0, SVG Export Plug-In . SVG Version: 6.00 Build 0)  -->
<!DOCTYPE svg PUBLIC "-//W3C//DTD SVG 1.1//EN" "http://www.w3.org/Graphics/SVG/1.1/DTD/svg11.dtd">
<svg version="1.1" xmlns="http://www.w3.org/2000/svg" xmlns:xlink="http://www.w3.org/1999/xlink" x="0px" y="0px"
	 width="595.279px" height="516.667px" viewBox="0 164.112 595.279 516.667" enable-background="new 0 164.112 595.279 516.667"
	 xml:space="preserve">
<g id="Laag_1" display="none">
	<title>Picto_Procurement-Process_FC</title>
	<polygon display="inline" points="446.227,163.255 149.054,163.255 0,421.179 149.054,678.635 446.227,678.635 595.28,421.179 	"/>
	<path display="inline" d="M392.025,413.703v27.101c-0.097,0.992-0.416,1.951-0.935,2.803c-0.446,0.876-1.354,1.42-2.336,1.402
		l-22.896,3.738c-1.322,3.831-2.883,7.576-4.672,11.214c3.271,4.672,7.943,10.279,13.083,16.821
		c0.518,0.852,0.838,1.811,0.935,2.803c0.061,1.021-0.274,2.024-0.935,2.804c-3.728,4.649-7.788,9.021-12.148,13.083
		c-5.607,5.607-9.812,8.878-11.682,8.878c-1.142-0.092-2.253-0.409-3.271-0.935l-16.821-13.083
		c-3.652,1.756-7.396,3.315-11.214,4.673c-0.647,7.688-1.74,15.333-3.271,22.896c-0.41,2.045-2.126,3.57-4.205,3.738h-27.101
		c-0.992-0.098-1.951-0.417-2.804-0.935c-0.906-0.642-1.433-1.693-1.401-2.804l-3.271-22.429c-3.906-1.117-7.67-2.686-11.214-4.672
		l-17.289,13.083c-1.861,1.367-4.443,1.168-6.074-0.468c-14.018-13.083-21.026-21.026-21.026-23.362
		c0.097-0.993,0.416-1.951,0.935-2.804c0.935-1.401,2.804-3.738,6.074-7.943c2.165-3.091,4.505-6.055,7.009-8.878
		c-2.023-3.911-3.742-7.973-5.14-12.148l-22.428-3.738c-0.983,0.019-1.89-0.525-2.337-1.401c-0.518-0.853-0.837-1.811-0.935-2.804
		v-27.101c0.098-0.993,0.417-1.951,0.935-2.804c0.447-0.875,1.354-1.42,2.337-1.401l22.896-3.738
		c1.322-3.832,2.883-7.577,4.672-11.214c-3.271-4.673-7.943-10.28-13.083-16.821c-0.519-0.853-0.838-1.811-0.935-2.803
		c-0.061-1.02,0.274-2.024,0.935-2.804c3.728-4.649,7.788-9.021,12.148-13.083c6.074-5.607,9.812-8.878,11.682-8.878
		c1.142,0.092,2.253,0.41,3.271,0.935l16.821,13.083c3.577-1.919,7.333-3.484,11.214-4.672c0.6-7.54,1.692-15.032,3.271-22.428
		c0.41-2.045,2.126-3.57,4.205-3.738h27.101c0.992,0.097,1.951,0.417,2.803,0.935c0.876,0.447,1.42,1.354,1.402,2.336l3.271,22.428
		c3.906,1.118,7.67,2.686,11.214,4.672l17.288-13.083c0.853-0.519,1.812-0.838,2.804-0.935c1.225,0.055,2.387,0.553,3.271,1.402
		c14.018,13.083,21.026,21.026,21.026,23.363c-0.097,0.993-0.417,1.951-0.935,2.803c-1.402,1.402-3.271,4.206-6.074,7.943
		c-2.804,3.738-5.141,6.542-6.542,8.878c2.336,4.672,3.738,8.877,5.14,12.149l22.429,3.271c0.919,0.177,1.747,0.674,2.336,1.401
		C391.558,411.834,392.025,412.769,392.025,413.703z M324.74,453.419c14.451-14.743,14.215-38.409-0.528-52.86
		c-14.743-14.452-38.41-14.215-52.861,0.528s-14.214,38.41,0.529,52.861c7.002,6.863,16.422,10.701,26.228,10.685
		C308.152,464.73,317.79,460.672,324.74,453.419z"/>
	<path display="inline" d="M298.108,571.167c-37.43-0.08-73.334-14.845-99.992-41.118c-26.525-26.491-41.335-62.504-41.118-99.992
		c-0.011-37.448,14.767-73.385,41.118-99.992"/>
	<polyline display="inline" points="178.024,318.383 211.198,318.383 211.198,352.025 	"/>
	<path display="inline" d="M297.173,285.675c37.43,0.081,73.333,14.844,99.991,41.118c26.526,26.492,41.335,62.504,41.119,99.993
		c-0.081,37.43-14.845,73.333-41.119,99.991"/>
	<polyline display="inline" points="416.789,537.992 383.615,537.992 383.615,504.817 	"/>
</g>
<g id="Picto_x5F_Procurement-Process" display="none">
	<polygon display="inline" fill="#FF9933" points="446.577,163.258 149.157,163.258 0.449,420.826 149.157,678.396 446.577,678.396 
		595.28,420.826 	"/>
	<path display="inline" fill="#3F6D87" d="M392.142,413.578v27.169c0,0.981-0.342,1.935-1.021,2.861
		c-0.688,0.933-1.475,1.449-2.354,1.54l-22.76,3.529c-1.081,3.429-2.646,7.147-4.699,11.16c3.33,4.698,7.729,10.333,13.214,16.889
		c0.684,0.979,1.031,1.961,1.031,2.938c0,1.172-0.348,2.103-1.031,2.79c-2.255,2.938-6.288,7.316-12.115,13.143
		c-5.826,5.827-9.668,8.735-11.525,8.735c-1.081,0-2.107-0.339-3.089-1.025l-16.888-13.215c-3.627,1.859-7.391,3.374-11.311,4.552
		c-1.077,10.574-2.199,18.162-3.372,22.759c-0.689,2.351-2.158,3.528-4.407,3.528h-27.314c-1.081,0-2.057-0.369-2.942-1.103
		c-0.877-0.733-1.369-1.59-1.465-2.57l-3.376-22.47c-3.335-0.977-7-2.494-11.01-4.55l-17.33,13.068
		c-0.694,0.687-1.67,1.025-2.943,1.025c-1.081,0-2.104-0.385-3.081-1.172c-14.099-13.02-21.153-20.853-21.153-23.496
		c0-0.884,0.346-1.81,1.031-2.791c0.977-1.373,2.984-3.964,6.023-7.783c3.029-3.816,5.339-6.808,6.898-8.957
		c-2.249-4.308-3.96-8.32-5.137-12.044l-22.322-3.524c-0.976-0.096-1.811-0.563-2.5-1.396c-0.685-0.83-1.027-1.784-1.027-2.863
		v-27.169c0-0.977,0.342-1.93,1.027-2.861c0.689-0.928,1.469-1.444,2.354-1.542l22.76-3.527c1.082-3.424,2.646-7.143,4.699-11.156
		c-3.33-4.702-7.734-10.333-13.213-16.892c-0.689-1.074-1.031-2.056-1.031-2.938c0-1.172,0.342-2.149,1.031-2.934
		c2.149-2.939,6.168-7.293,12.037-13.07c5.877-5.774,9.746-8.667,11.604-8.667c1.072,0,2.107,0.347,3.089,1.029l16.887,13.219
		c3.326-1.766,7.096-3.333,11.307-4.703c1.072-10.572,2.2-18.109,3.376-22.613c0.68-2.35,2.158-3.527,4.407-3.527h27.314
		c1.072,0,2.057,0.369,2.934,1.102c0.886,0.734,1.373,1.595,1.474,2.571l3.372,22.467c3.331,0.981,6.999,2.496,11.015,4.557
		l17.33-13.073c0.784-0.682,1.766-1.029,2.942-1.029c1.072,0,2.104,0.392,3.08,1.177c14.095,13.022,21.148,20.854,21.148,23.494
		c0,0.883-0.342,1.816-1.026,2.792c-1.178,1.567-3.229,4.211-6.169,7.93c-2.938,3.719-5.138,6.658-6.606,8.811
		c2.249,4.698,3.914,8.715,4.991,12.042l22.321,3.378c0.977,0.197,1.812,0.71,2.501,1.542
		C391.8,411.545,392.142,412.503,392.142,413.578 M324.74,453.521c7.337-7.344,11.01-16.203,11.01-26.581
		c0-10.376-3.673-19.235-11.01-26.581c-7.347-7.344-16.212-11.012-26.584-11.012c-10.376,0-19.241,3.668-26.582,11.012
		c-7.348,7.346-11.01,16.205-11.01,26.581c0,10.378,3.663,19.237,11.01,26.581c7.341,7.346,16.206,11.015,26.582,11.015
		C308.529,464.536,317.394,460.867,324.74,453.521"/>
	<path display="inline" fill="none" stroke="#FFFFFF" stroke-width="16.1663" stroke-linecap="round" stroke-miterlimit="10" d="
		M298.156,570.914c-38.957,0-74.228-15.792-99.762-41.321c-25.534-25.533-41.321-60.802-41.321-99.76
		c0-38.962,15.788-74.233,41.321-99.764"/>
	
		<polyline display="inline" fill="none" stroke="#FFFFFF" stroke-width="16.1663" stroke-linecap="round" stroke-linejoin="round" stroke-miterlimit="10" points="
		178.281,318.427 211.655,318.427 211.655,351.797 	"/>
	<path display="inline" fill="none" stroke="#FFFFFF" stroke-width="16.1663" stroke-linecap="round" stroke-miterlimit="10" d="
		M297.253,285.449c38.958,0,74.233,15.792,99.767,41.321c25.529,25.534,41.321,60.802,41.321,99.764
		c0,38.957-15.792,74.23-41.321,99.76"/>
	
		<polyline display="inline" fill="none" stroke="#FFFFFF" stroke-width="16.1663" stroke-linecap="round" stroke-linejoin="round" stroke-miterlimit="10" points="
		417.128,537.938 383.755,537.938 383.755,504.573 	"/>
</g>
<g id="Picto_x5F_Procurement-Development_1_" display="none">
	<polyline display="inline" fill="#FF9933" points="594.28,422.384 446.213,165.925 150.079,165.925 2.013,422.384 150.079,678.845 
		446.213,678.845 594.28,422.384 	"/>
	<path display="inline" fill="none" stroke="#3EA678" stroke-width="13.9567" stroke-linecap="round" stroke-miterlimit="10" d="
		M169.197,576.246c0,0,53.028,6.224,90.087-44.365c37.059-50.588,34.506-140.87,49.834-172.779
		c15.338-31.914,33.229-54.487,49.203-62.66"/>
	<path display="inline" fill="#3EA678" d="M162.495,599.988c11.826,0,21.403-9.581,21.403-21.398
		c0-11.821-9.577-21.405-21.403-21.405c-11.822,0-21.395,9.584-21.395,21.405C141.101,590.407,150.674,599.988,162.495,599.988"/>
	<path display="inline" fill="none" stroke="#FFFFFF" stroke-width="13.9567" stroke-linecap="round" stroke-miterlimit="10" d="
		M162.495,599.988c11.826,0,21.403-9.581,21.403-21.398c0-11.821-9.577-21.405-21.403-21.405c-11.822,0-21.395,9.584-21.395,21.405
		C141.101,590.407,150.674,599.988,162.495,599.988"/>
	<path display="inline" fill="#3EA678" d="M251.565,561.854c11.821,0,21.398-9.584,21.398-21.396
		c0-11.826-9.578-21.409-21.398-21.409c-11.822,0-21.399,9.583-21.399,21.409C230.166,552.27,239.742,561.854,251.565,561.854"/>
	<path display="inline" fill="none" stroke="#FFFFFF" stroke-width="13.9567" stroke-linecap="round" stroke-miterlimit="10" d="
		M251.565,561.854c11.821,0,21.398-9.584,21.398-21.396c0-11.826-9.578-21.409-21.398-21.409c-11.822,0-21.399,9.583-21.399,21.409
		C230.166,552.27,239.742,561.854,251.565,561.854"/>
	<path display="inline" fill="#3EA678" d="M307.113,389.848c11.822,0,21.396-9.584,21.396-21.396
		c0-11.822-9.573-21.405-21.396-21.405c-11.825,0-21.402,9.583-21.402,21.405C285.711,380.264,295.287,389.848,307.113,389.848"/>
	<path display="inline" fill="none" stroke="#FFFFFF" stroke-width="13.9567" stroke-linecap="round" stroke-miterlimit="10" d="
		M307.113,389.848c11.822,0,21.396-9.584,21.396-21.396c0-11.822-9.573-21.405-21.396-21.405c-11.825,0-21.402,9.583-21.402,21.405
		C285.711,380.264,295.287,389.848,307.113,389.848"/>
	
		<polyline display="inline" fill="none" stroke="#563701" stroke-width="16.0967" stroke-linecap="round" stroke-linejoin="round" stroke-miterlimit="10" points="
		397.791,225.267 431.016,225.178 431.102,258.404 	"/>
	
		<line display="inline" fill="none" stroke="#563701" stroke-width="14.5847" stroke-linecap="round" stroke-miterlimit="10" stroke-dasharray="8.4298,21.0746" x1="373.448" y1="282.899" x2="427.858" y2="228.49"/>
	<path display="inline" fill="#3EA678" d="M358.321,317.845c11.82,0,21.394-9.584,21.394-21.396
		c0-11.821-9.573-21.405-21.394-21.405c-11.831,0-21.404,9.584-21.404,21.405C336.916,308.261,346.49,317.845,358.321,317.845"/>
	<path display="inline" fill="none" stroke="#FFFFFF" stroke-width="13.9567" stroke-linecap="round" stroke-miterlimit="10" d="
		M358.321,317.845c11.82,0,21.394-9.584,21.394-21.396c0-11.821-9.573-21.405-21.394-21.405c-11.831,0-21.404,9.584-21.404,21.405
		C336.916,308.261,346.49,317.845,358.321,317.845"/>
</g>
<g id="Picto_x5F_Category_x5F_Management_1_" display="none">
	<polygon display="inline" fill="#FF9933" points="446.281,165.199 150.3,165.199 2.305,421.529 150.3,677.86 446.281,677.86 
		594.28,421.529 	"/>
	<path display="inline" fill="none" stroke="#563701" stroke-width="16.0887" stroke-linecap="round" stroke-miterlimit="10" d="
		M214.046,518.816c0-46.078,1.698-98.674,80.81-98.674c79.116,0,86.851-36.414,86.851-74.984"/>
	
		<polyline display="inline" fill="none" stroke="#563701" stroke-width="16.0887" stroke-linecap="round" stroke-linejoin="round" stroke-miterlimit="10" points="
		357.42,358.041 380.902,334.557 404.382,358.041 	"/>
	
		<line display="inline" fill="none" stroke="#3F6D87" stroke-width="16.0887" stroke-linecap="round" stroke-linejoin="round" stroke-miterlimit="10" x1="297.411" y1="520.131" x2="297.411" y2="569.839"/>
	
		<line display="inline" fill="none" stroke="#3F6D87" stroke-width="16.0887" stroke-linecap="round" stroke-linejoin="round" stroke-miterlimit="10" x1="322.264" y1="544.986" x2="272.56" y2="544.986"/>
	
		<line display="inline" fill="none" stroke="#3F6D87" stroke-width="16.0887" stroke-linecap="round" stroke-linejoin="round" stroke-miterlimit="10" x1="380.902" y1="482.773" x2="380.902" y2="532.479"/>
	
		<line display="inline" fill="none" stroke="#3F6D87" stroke-width="16.0887" stroke-linecap="round" stroke-linejoin="round" stroke-miterlimit="10" x1="405.759" y1="507.628" x2="356.049" y2="507.628"/>
	
		<line display="inline" fill="none" stroke="#3F6D87" stroke-width="16.0887" stroke-linecap="round" stroke-linejoin="round" stroke-miterlimit="10" x1="234.98" y1="333.186" x2="234.98" y2="382.893"/>
	
		<line display="inline" fill="none" stroke="#3F6D87" stroke-width="16.0887" stroke-linecap="round" stroke-linejoin="round" stroke-miterlimit="10" x1="259.831" y1="358.041" x2="210.122" y2="358.041"/>
	<path display="inline" fill="#3EA678" d="M408.532,265.526c0,15.26-12.369,27.63-27.631,27.63c-15.258,0-27.632-12.37-27.632-27.63
		c0-15.262,12.374-27.631,27.632-27.631C396.163,237.895,408.532,250.264,408.532,265.526"/>
	
		<circle display="inline" fill="none" stroke="#FFFFFF" stroke-width="13.9497" stroke-linecap="round" stroke-miterlimit="10" cx="380.901" cy="265.526" r="27.631"/>
	<path display="inline" fill="#3EA678" d="M241.677,577.535c0,15.26-12.375,27.629-27.632,27.629
		c-15.267,0-27.631-12.369-27.631-27.629c0-15.262,12.365-27.632,27.631-27.632C229.303,549.903,241.677,562.273,241.677,577.535"/>
	<path display="inline" fill="none" stroke="#FFFFFF" stroke-width="13.9497" stroke-linecap="round" stroke-miterlimit="10" d="
		M241.677,577.535c0,15.26-12.375,27.629-27.632,27.629c-15.267,0-27.631-12.369-27.631-27.629
		c0-15.262,12.365-27.632,27.631-27.632C229.303,549.903,241.677,562.273,241.677,577.535z"/>
</g>
<g id="Picto_x5F_Negotiation_1_" display="none">
	<polygon display="inline" fill="#FF9933" points="445.105,165.596 149.035,165.596 1,421.998 149.035,678.4 445.105,678.4 
		593.138,421.998 	"/>
	<path display="inline" fill="none" stroke="#563701" stroke-width="21.349" stroke-linecap="round" stroke-miterlimit="10" d="
		M102.909,415.48c0,0,11.641,51.279,14.067,60.497c2.426,9.219,12.127,28.8,28.625,28.8h48.511"/>
	<path display="inline" fill="#3F6D87" d="M202.365,344.499c0,14.469-11.724,26.195-26.199,26.195
		c-14.467,0-26.2-11.726-26.2-26.195c0-14.471,11.732-26.202,26.2-26.202C190.641,318.297,202.365,330.028,202.365,344.499"/>
	
		<polyline display="inline" fill="none" stroke="#3F6D87" stroke-width="32.0235" stroke-linecap="round" stroke-linejoin="round" stroke-miterlimit="10" points="
		228.564,556.029 228.564,471.124 153.849,471.124 172.768,388.162 	"/>
	
		<polyline display="inline" fill="none" stroke="#3F6D87" stroke-width="14.2327" stroke-linecap="round" stroke-linejoin="round" stroke-miterlimit="10" points="
		257.676,412.905 211.581,412.905 173.74,385.738 	"/>
	
		<line display="inline" fill="none" stroke="#563701" stroke-width="14.2327" stroke-linecap="round" stroke-linejoin="round" stroke-miterlimit="10" x1="204.304" y1="431.828" x2="303.142" y2="431.828"/>
	<rect x="270.293" y="431.828" display="inline" fill="#FFFFFF" width="40.261" height="133.158"/>
	
		<rect x="270.293" y="431.828" display="inline" fill="none" stroke="#563701" stroke-width="14.2327" stroke-linecap="round" stroke-linejoin="round" stroke-miterlimit="10" width="40.261" height="133.158"/>
	<path display="inline" fill="none" stroke="#563701" stroke-width="21.349" stroke-linecap="round" stroke-miterlimit="10" d="
		M488.482,415.48c0,0-11.646,51.279-14.072,60.497c-2.426,9.219-12.127,28.8-28.623,28.8h-48.518"/>
	<path display="inline" fill="#3F6D87" d="M389.021,344.499c0,14.469,11.725,26.195,26.201,26.195
		c14.467,0,26.199-11.726,26.199-26.195c0-14.471-11.732-26.202-26.199-26.202C400.745,318.297,389.021,330.028,389.021,344.499"/>
	
		<polyline display="inline" fill="none" stroke="#3F6D87" stroke-width="32.0235" stroke-linecap="round" stroke-linejoin="round" stroke-miterlimit="10" points="
		362.822,556.029 362.822,471.124 437.536,471.124 418.618,388.162 	"/>
	
		<polyline display="inline" fill="none" stroke="#3F6D87" stroke-width="14.2327" stroke-linecap="round" stroke-linejoin="round" stroke-miterlimit="10" points="
		333.716,412.905 379.806,412.905 417.646,385.738 	"/>
	
		<line display="inline" fill="none" stroke="#563701" stroke-width="14.2327" stroke-linecap="round" stroke-linejoin="round" stroke-miterlimit="10" x1="387.081" y1="431.828" x2="288.244" y2="431.828"/>
	<rect x="280.831" y="431.828" display="inline" fill="#563701" width="40.266" height="133.158"/>
	
		<rect x="280.831" y="431.828" display="inline" fill="none" stroke="#563701" stroke-width="14.2327" stroke-linecap="round" stroke-linejoin="round" stroke-miterlimit="10" width="40.266" height="133.158"/>
	<path display="inline" fill="#FFFFFF" d="M250.925,249.643c8.182-3.443,17.071-5.169,26.681-5.169
		c9.612,0,18.51,1.726,26.687,5.169c8.176,3.45,14.629,8.14,19.361,14.079c4.729,5.939,7.096,12.405,7.096,19.399
		c0,6.995-2.367,13.461-7.096,19.395c-4.732,5.941-11.186,10.634-19.361,14.081c-8.176,3.445-17.075,5.172-26.687,5.172
		c-4.328,0-8.752-0.405-13.282-1.211c-6.24,4.428-13.235,7.651-20.984,9.661c-1.812,0.457-3.974,0.856-6.491,1.211h-0.227
		c-0.554,0-1.068-0.2-1.548-0.603c-0.477-0.404-0.768-0.933-0.864-1.589c-0.054-0.148-0.081-0.311-0.081-0.488
		s0.018-0.338,0.041-0.493c0.022-0.15,0.074-0.302,0.15-0.452c0.077-0.152,0.14-0.275,0.191-0.377
		c0.045-0.103,0.136-0.236,0.262-0.414c0.123-0.177,0.227-0.302,0.301-0.377c0.072-0.079,0.19-0.204,0.34-0.376
		c0.149-0.176,0.25-0.293,0.3-0.344c0.25-0.297,0.831-0.931,1.739-1.884c0.904-0.958,1.559-1.701,1.962-2.228
		c0.4-0.529,0.963-1.256,1.694-2.189c0.732-0.932,1.363-1.899,1.89-2.907c0.527-1.006,1.045-2.112,1.549-3.316
		c-6.242-3.629-11.152-8.081-14.722-13.363c-3.57-5.285-5.36-10.922-5.36-16.909c0-6.995,2.366-13.46,7.095-19.399
		C236.295,257.782,242.745,253.093,250.925,249.643 M299.195,258.062c-6.69-2.614-13.884-3.927-21.589-3.927
		c-7.698,0-14.893,1.313-21.584,3.927c-6.695,2.612-12.014,6.161-15.965,10.64c-3.948,4.481-5.928,9.284-5.928,14.419
		c0,4.127,1.335,8.104,4.007,11.926c2.661,3.824,6.414,7.145,11.246,9.963l7.317,4.229l-2.638,6.338
		c1.708-1.008,3.271-1.989,4.677-2.943l3.321-2.339l4.002,0.751c3.929,0.709,7.771,1.061,11.545,1.061
		c7.705,0,14.899-1.311,21.589-3.929c6.691-2.614,12.016-6.159,15.967-10.638c3.951-4.483,5.928-9.289,5.928-14.419
		c0-5.135-1.977-9.938-5.928-14.419C311.21,264.223,305.886,260.673,299.195,258.062"/>
	<path display="inline" fill="#E6E7E7" d="M339.654,332.712c0.508,1.206,1.02,2.312,1.553,3.323
		c0.521,1.004,1.152,1.976,1.885,2.902c0.73,0.934,1.295,1.661,1.693,2.19c0.406,0.531,1.064,1.27,1.963,2.228
		c0.908,0.954,1.49,1.583,1.738,1.885c0.053,0.05,0.15,0.168,0.307,0.343c0.145,0.173,0.262,0.302,0.336,0.377
		c0.072,0.075,0.176,0.199,0.299,0.377c0.127,0.177,0.219,0.311,0.264,0.418c0.051,0.097,0.113,0.225,0.195,0.372
		c0.072,0.154,0.123,0.307,0.145,0.456c0.023,0.151,0.041,0.312,0.041,0.489c0,0.178-0.027,0.338-0.076,0.493
		c-0.15,0.702-0.477,1.256-0.982,1.66c-0.504,0.399-1.059,0.577-1.662,0.526c-2.516-0.349-4.678-0.753-6.49-1.206
		c-7.75-2.015-14.744-5.237-20.984-9.659c-4.529,0.799-8.953,1.203-13.281,1.203c-13.641,0-25.514-3.32-35.625-9.963
		c2.912,0.2,5.129,0.303,6.636,0.303c8.108,0,15.879-1.134,23.325-3.396c7.449-2.269,14.094-5.512,19.926-9.738
		c6.295-4.628,11.123-9.963,14.494-16.004c3.369-6.035,5.061-12.426,5.061-19.173c0-3.87-0.582-7.699-1.74-11.471
		c6.494,3.573,11.623,8.051,15.398,13.433c3.779,5.387,5.664,11.176,5.664,17.363c0,6.037-1.791,11.689-5.359,16.944
		C350.804,324.648,345.894,329.09,339.654,332.712"/>
</g>
<g id="Picto_x5F_Supplier_x5F_Relationship_x5F_Management">
	<polygon fill="#FF9933" points="446.513,166.009 150.235,166.009 2.095,422.59 150.235,679.178 446.513,679.178 594.653,422.59 	
		"/>
	<path fill="#FFFFFF" d="M235.179,534.884c1.037-0.995,2.264-1.795,3.423-2.663c-41.263-21.164-69.622-64.055-69.622-113.529
		c0-1.364,0.159-2.684,0.205-4.039h-5.422c-5.427,0-10.505-0.87-15.123-2.536c-0.096,2.182-0.168,4.37-0.168,6.575
		c0,55.888,31.127,104.633,76.945,129.846c0.473-0.94,0.891-1.896,1.414-2.809C229.198,541.57,232.002,537.925,235.179,534.884"/>
	<path fill="#FFFFFF" d="M254.025,298.541c13.336-4.736,27.618-7.45,42.559-7.45c21.908,0,42.54,5.557,60.572,15.327
		c-1.027-4.059-1.555-8.318-1.555-12.772c0-3.527,0.354-6.963,1.036-10.291c-18.372-8.182-38.682-12.773-60.054-12.773
		c-15.664,0-30.759,2.464-44.945,6.991c1.7,5.075,2.618,10.454,2.618,16.072C254.256,295.307,254.17,296.937,254.025,298.541"/>
	<path fill="#FFFFFF" d="M424.186,418.694c0,49.472-28.358,92.362-69.617,113.521c1.154,0.873,2.378,1.673,3.409,2.659
		c3.187,3.05,5.986,6.695,8.359,10.854c0.518,0.913,0.936,1.868,1.413,2.804c45.817-25.208,76.94-73.953,76.94-129.839
		c0-1.354-0.063-2.695-0.101-4.041h-20.608C424.023,416.008,424.186,417.331,424.186,418.694"/>
	<path fill="#563701" d="M361.473,591.633c0,7.373-2.236,13.2-6.723,17.464c-4.486,4.272-10.449,6.409-17.886,6.409h-80.567
		c-7.437,0-13.396-2.137-17.882-6.409c-4.486-4.264-6.731-10.091-6.731-17.464c0-3.254,0.109-6.44,0.323-9.54
		c0.213-3.104,0.646-6.455,1.286-10.05c0.65-3.596,1.464-6.928,2.45-10c0.982-3.073,2.304-6.073,3.963-8.991
		s3.563-5.409,5.714-7.468c2.15-2.05,4.777-3.7,7.882-4.932c3.104-1.228,6.531-1.841,10.277-1.841c0.55,0,1.845,0.659,3.873,1.981
		c2.032,1.322,4.318,2.795,6.868,4.423c2.55,1.627,5.868,3.104,9.955,4.427c4.091,1.318,8.191,1.982,12.309,1.982
		s8.218-0.664,12.305-1.982c4.086-1.322,7.404-2.8,9.959-4.427c2.55-1.628,4.836-3.101,6.863-4.423s3.322-1.981,3.872-1.981
		c3.75,0,7.178,0.613,10.282,1.841c3.1,1.231,5.727,2.882,7.882,4.932c2.149,2.059,4.055,4.55,5.714,7.468
		c1.658,2.918,2.977,5.918,3.963,8.991c0.982,3.072,1.8,6.404,2.441,10c0.646,3.595,1.077,6.945,1.295,10.05
		C361.373,585.192,361.473,588.379,361.473,591.633 M321.61,484.284c6.914,6.914,10.373,15.259,10.373,25.027
		c0,9.777-3.459,18.113-10.373,25.027c-6.913,6.913-15.254,10.368-25.026,10.368c-9.777,0-18.118-3.455-25.027-10.368
		c-6.914-6.914-10.373-15.25-10.373-25.027c0-9.769,3.459-18.113,10.373-25.027c6.909-6.913,15.25-10.368,25.027-10.368
		C306.356,473.916,314.697,477.371,321.61,484.284"/>
	<path fill="#3F6D87" d="M268.943,375.968c0,7.372-2.246,13.2-6.732,17.468c-4.486,4.272-10.45,6.409-17.881,6.409h-80.567
		c-7.437,0-13.4-2.137-17.886-6.409c-4.486-4.268-6.727-10.096-6.727-17.468c0-3.255,0.104-6.439,0.322-9.539
		c0.214-3.104,0.646-6.454,1.291-10.052c0.646-3.596,1.455-6.927,2.441-10c0.982-3.07,2.305-6.068,3.963-8.986
		c1.659-2.918,3.564-5.409,5.714-7.47c2.15-2.052,4.782-3.7,7.882-4.93c3.104-1.229,6.532-1.843,10.282-1.843
		c0.554,0,1.841,0.662,3.873,1.982c2.027,1.323,4.313,2.798,6.863,4.423c2.55,1.629,5.868,3.104,9.955,4.427
		c4.091,1.32,8.191,1.981,12.309,1.981s8.218-0.661,12.309-1.981c4.086-1.323,7.404-2.798,9.954-4.427
		c2.55-1.625,4.841-3.1,6.868-4.423c2.027-1.32,3.318-1.982,3.873-1.982c3.746,0,7.173,0.614,10.277,1.843s5.732,2.877,7.882,4.93
		c2.15,2.061,4.055,4.552,5.713,7.47c1.659,2.918,2.982,5.916,3.964,8.986c0.982,3.073,1.8,6.404,2.445,10
		c0.646,3.598,1.073,6.947,1.291,10.052C268.833,369.529,268.943,372.713,268.943,375.968 M229.07,268.621
		c6.918,6.911,10.373,15.257,10.373,25.027c0,9.775-3.454,18.116-10.373,25.027c-6.914,6.916-15.254,10.371-25.027,10.371
		c-9.777,0-18.113-3.455-25.027-10.371c-6.913-6.911-10.372-15.252-10.372-25.027c0-9.77,3.459-18.116,10.372-25.027
		c6.914-6.914,15.25-10.371,25.027-10.371C213.816,258.25,222.156,261.707,229.07,268.621"/>
	<path fill="#3EA678" d="M470.713,375.968c0,7.372-2.245,13.2-6.731,17.468c-4.486,4.272-10.445,6.409-17.882,6.409h-80.567
		c-7.437,0-13.4-2.137-17.887-6.409c-4.486-4.268-6.727-10.096-6.727-17.468c0-3.255,0.104-6.439,0.322-9.539
		c0.214-3.104,0.646-6.454,1.291-10.052c0.646-3.596,1.459-6.927,2.441-10c0.981-3.07,2.304-6.068,3.963-8.986
		s3.563-5.409,5.719-7.47c2.149-2.052,4.777-3.7,7.881-4.93c3.101-1.229,6.527-1.843,10.277-1.843c0.555,0,1.846,0.662,3.873,1.982
		c2.027,1.323,4.313,2.798,6.868,4.423c2.545,1.629,5.863,3.104,9.95,4.427c4.091,1.32,8.19,1.981,12.309,1.981
		s8.218-0.661,12.309-1.981c4.087-1.323,7.404-2.798,9.955-4.427c2.55-1.625,4.841-3.1,6.868-4.423
		c2.026-1.32,3.317-1.982,3.872-1.982c3.746,0,7.173,0.614,10.277,1.843s5.731,2.877,7.882,4.93c2.149,2.061,4.055,4.552,5.714,7.47
		c1.663,2.918,2.981,5.916,3.963,8.986c0.986,3.073,1.801,6.404,2.445,10c0.646,3.598,1.073,6.947,1.291,10.052
		C470.604,369.529,470.713,372.713,470.713,375.968 M430.841,268.621c6.918,6.911,10.372,15.257,10.372,25.027
		c0,9.775-3.454,18.116-10.372,25.027c-6.909,6.916-15.255,10.371-25.027,10.371c-9.769,0-18.113-3.455-25.027-10.371
		c-6.913-6.911-10.368-15.252-10.368-25.027c0-9.77,3.455-18.116,10.368-25.027c6.914-6.914,15.259-10.371,25.027-10.371
		C415.586,258.25,423.932,261.707,430.841,268.621"/>
</g>
<g id="Picto_x5F_Supplier_x5F_Chain_x5F_Management" display="none">
	<polygon display="inline" fill="#FF9933" points="447.001,166.224 150.449,166.224 2.168,423.049 150.449,679.878 447.001,679.878 
		595.28,423.049 	"/>
	
		<circle display="inline" fill="none" stroke="#FFFFFF" stroke-width="18.6355" stroke-linecap="round" stroke-miterlimit="10" cx="288.527" cy="429.15" r="126.622"/>
	<path display="inline" fill="#FF9933" d="M329.91,470.37c1.288,0,2.397,0.474,3.336,1.41c0.941,0.938,1.409,2.048,1.409,3.34
		v66.089l39.765-31.82c0.837-0.688,1.828-1.042,2.966-1.042c1.284,0,2.398,0.473,3.34,1.41c0.938,0.942,1.406,2.057,1.406,3.34
		v28.112l39.764-31.82c0.837-0.688,1.824-1.042,2.967-1.042c1.287,0,2.397,0.473,3.335,1.41c0.941,0.942,1.41,2.057,1.41,3.34v85.46
		c0,1.279-0.469,2.394-1.41,3.336c-0.938,0.941-2.048,1.405-3.335,1.405H301.425c-1.283,0-2.397-0.464-3.34-1.405
		c-0.941-0.942-1.405-2.057-1.405-3.336V475.12c0-1.292,0.464-2.402,1.405-3.34c0.942-0.937,2.057-1.41,3.34-1.41H329.91z"/>
	<path display="inline" fill="none" stroke="#FF9933" stroke-width="16.5017" stroke-miterlimit="10" d="M329.91,470.37
		c1.288,0,2.397,0.474,3.336,1.41c0.941,0.938,1.409,2.048,1.409,3.34v66.089l39.765-31.82c0.837-0.688,1.828-1.042,2.966-1.042
		c1.284,0,2.398,0.473,3.34,1.41c0.938,0.942,1.406,2.057,1.406,3.34v28.112l39.764-31.82c0.837-0.688,1.824-1.042,2.967-1.042
		c1.287,0,2.397,0.473,3.335,1.41c0.941,0.942,1.41,2.057,1.41,3.34v85.46c0,1.279-0.469,2.394-1.41,3.336
		c-0.938,0.941-2.048,1.405-3.335,1.405H301.425c-1.283,0-2.397-0.464-3.34-1.405c-0.941-0.942-1.405-2.057-1.405-3.336V475.12
		c0-1.292,0.464-2.402,1.405-3.34c0.942-0.937,2.057-1.41,3.34-1.41H329.91z"/>
	<path display="inline" fill="#FF9933" d="M340.67,321.464c-8.016,0.246-14.568,3.417-19.663,9.495h-9.937
		c-4.059,0-7.471-1.005-10.241-3.002c-2.768-2.007-4.149-4.937-4.149-8.795c0-17.457,3.061-26.183,9.194-26.183
		c0.301,0,1.374,0.519,3.229,1.556c1.857,1.042,4.264,2.088,7.23,3.158c2.972,1.06,5.909,1.587,8.831,1.587
		c3.312,0,6.598-0.563,9.864-1.706c-0.251,1.837-0.374,3.466-0.374,4.899C334.656,309.348,336.662,315.677,340.67,321.464
		 M338.586,260.558c3.713,3.717,5.568,8.189,5.568,13.435c0,5.242-1.855,9.714-5.568,13.422c-3.702,3.708-8.18,5.564-13.421,5.564
		c-5.242,0-9.718-1.856-13.431-5.564c-3.704-3.708-5.56-8.18-5.56-13.422c0-5.246,1.855-9.718,5.56-13.435
		c3.713-3.708,8.188-5.555,13.431-5.555C330.406,255.002,334.884,256.85,338.586,260.558 M420.117,368.721
		c0,5.928-1.812,10.615-5.419,14.05c-3.613,3.444-8.403,5.164-14.392,5.164h-64.833c-5.981,0-10.782-1.72-14.395-5.164
		c-3.608-3.435-5.414-8.122-5.414-14.05c0-2.625,0.087-5.186,0.264-7.685c0.174-2.498,0.52-5.191,1.038-8.084
		c0.518-2.894,1.173-5.574,1.965-8.049c0.792-2.476,1.857-4.877,3.189-7.229c1.338-2.348,2.871-4.354,4.6-6.01
		c1.729-1.66,3.85-2.979,6.342-3.972c2.498-0.987,5.251-1.479,8.272-1.479c0.49,0,1.561,0.527,3.193,1.592
		c1.629,1.06,3.435,2.248,5.41,3.558c1.979,1.311,4.627,2.498,7.938,3.567c3.312,1.06,6.652,1.592,10.01,1.592
		c3.366,0,6.705-0.533,10.019-1.592c3.312-1.069,5.959-2.257,7.935-3.567c1.982-1.31,3.785-2.498,5.419-3.558
		c1.633-1.065,2.697-1.592,3.188-1.592c3.017,0,5.773,0.491,8.271,1.479c2.499,0.992,4.614,2.312,6.343,3.972
		c1.729,1.656,3.268,3.663,4.604,6.01c1.328,2.352,2.394,4.754,3.185,7.229c0.793,2.475,1.446,5.155,1.966,8.049
		c0.52,2.893,0.864,5.586,1.037,8.084C420.027,363.535,420.117,366.096,420.117,368.721 M388.033,282.337
		c5.56,5.56,8.343,12.27,8.343,20.136c0,7.862-2.783,14.573-8.343,20.137c-5.565,5.569-12.28,8.349-20.146,8.349
		c-7.862,0-14.578-2.78-20.133-8.349c-5.564-5.564-8.349-12.275-8.349-20.137c0-7.866,2.784-14.577,8.349-20.136
		c5.555-5.569,12.271-8.345,20.133-8.345C375.753,273.992,382.468,276.768,388.033,282.337 M424.048,260.558
		c3.707,3.717,5.56,8.189,5.56,13.435c0,5.242-1.853,9.714-5.56,13.422c-3.708,3.708-8.186,5.564-13.427,5.564
		c-5.24,0-9.723-1.856-13.426-5.564c-3.712-3.708-5.564-8.18-5.564-13.422c0-5.246,1.853-9.718,5.564-13.435
		c3.703-3.708,8.186-5.555,13.426-5.555C415.863,255.002,420.34,256.85,424.048,260.558 M439.108,319.162
		c0,3.858-1.384,6.788-4.158,8.795c-2.767,1.997-6.179,3.002-10.237,3.002h-9.941c-5.091-6.078-11.646-9.249-19.654-9.495
		c3.999-5.787,6.01-12.116,6.01-18.991c0-1.433-0.127-3.062-0.373-4.899c3.267,1.142,6.552,1.706,9.868,1.706
		c2.916,0,5.86-0.527,8.822-1.587c2.967-1.069,5.383-2.116,7.233-3.158c1.857-1.037,2.931-1.556,3.23-1.556
		C436.04,292.979,439.108,301.705,439.108,319.162"/>
	<path display="inline" fill="none" stroke="#FF9933" stroke-width="16.5017" stroke-miterlimit="10" d="M340.67,321.464
		c-8.016,0.246-14.568,3.417-19.663,9.495h-9.937c-4.059,0-7.471-1.005-10.241-3.002c-2.768-2.007-4.149-4.937-4.149-8.795
		c0-17.457,3.061-26.183,9.194-26.183c0.301,0,1.374,0.519,3.229,1.556c1.857,1.042,4.264,2.088,7.23,3.158
		c2.972,1.06,5.909,1.587,8.831,1.587c3.312,0,6.598-0.563,9.864-1.706c-0.251,1.837-0.374,3.466-0.374,4.899
		C334.656,309.348,336.662,315.677,340.67,321.464z M338.586,260.558c3.713,3.717,5.568,8.189,5.568,13.435
		c0,5.242-1.855,9.714-5.568,13.422c-3.702,3.708-8.18,5.564-13.421,5.564c-5.242,0-9.718-1.856-13.431-5.564
		c-3.704-3.708-5.56-8.18-5.56-13.422c0-5.246,1.855-9.718,5.56-13.435c3.713-3.708,8.188-5.555,13.431-5.555
		C330.406,255.002,334.884,256.85,338.586,260.558z M420.117,368.721c0,5.928-1.812,10.615-5.419,14.05
		c-3.613,3.444-8.403,5.164-14.392,5.164h-64.833c-5.981,0-10.782-1.72-14.395-5.164c-3.608-3.435-5.414-8.122-5.414-14.05
		c0-2.625,0.087-5.186,0.264-7.685c0.174-2.498,0.52-5.191,1.038-8.084c0.518-2.894,1.173-5.574,1.965-8.049
		c0.792-2.476,1.857-4.877,3.189-7.229c1.338-2.348,2.871-4.354,4.6-6.01c1.729-1.66,3.85-2.979,6.342-3.972
		c2.498-0.987,5.251-1.479,8.272-1.479c0.49,0,1.561,0.527,3.193,1.592c1.629,1.06,3.435,2.248,5.41,3.558
		c1.979,1.311,4.627,2.498,7.938,3.567c3.312,1.06,6.652,1.592,10.01,1.592c3.366,0,6.705-0.533,10.019-1.592
		c3.312-1.069,5.959-2.257,7.935-3.567c1.982-1.31,3.785-2.498,5.419-3.558c1.633-1.065,2.697-1.592,3.188-1.592
		c3.017,0,5.773,0.491,8.271,1.479c2.499,0.992,4.614,2.312,6.343,3.972c1.729,1.656,3.268,3.663,4.604,6.01
		c1.328,2.352,2.394,4.754,3.185,7.229c0.793,2.475,1.446,5.155,1.966,8.049c0.52,2.893,0.864,5.586,1.037,8.084
		C420.027,363.535,420.117,366.096,420.117,368.721z M388.033,282.337c5.56,5.56,8.343,12.27,8.343,20.136
		c0,7.862-2.783,14.573-8.343,20.137c-5.565,5.569-12.28,8.349-20.146,8.349c-7.862,0-14.578-2.78-20.133-8.349
		c-5.564-5.564-8.349-12.275-8.349-20.137c0-7.866,2.784-14.577,8.349-20.136c5.555-5.569,12.271-8.345,20.133-8.345
		C375.753,273.992,382.468,276.768,388.033,282.337z M424.048,260.558c3.707,3.717,5.56,8.189,5.56,13.435
		c0,5.242-1.853,9.714-5.56,13.422c-3.708,3.708-8.186,5.564-13.427,5.564c-5.24,0-9.723-1.856-13.426-5.564
		c-3.712-3.708-5.564-8.18-5.564-13.422c0-5.246,1.853-9.718,5.564-13.435c3.703-3.708,8.186-5.555,13.426-5.555
		C415.863,255.002,420.34,256.85,424.048,260.558z M439.108,319.162c0,3.858-1.384,6.788-4.158,8.795
		c-2.767,1.997-6.179,3.002-10.237,3.002h-9.941c-5.091-6.078-11.646-9.249-19.654-9.495c3.999-5.787,6.01-12.116,6.01-18.991
		c0-1.433-0.127-3.062-0.373-4.899c3.267,1.142,6.552,1.706,9.868,1.706c2.916,0,5.86-0.527,8.822-1.587
		c2.967-1.069,5.383-2.116,7.233-3.158c1.857-1.037,2.931-1.556,3.23-1.556C436.04,292.979,439.108,301.705,439.108,319.162z"/>
	<path display="inline" fill="#FF9933" d="M226.183,386.419v75.961c0,0.742-0.101,1.401-0.296,1.97
		c-0.2,0.564-0.537,1.024-1.005,1.374c-0.469,0.342-0.878,0.624-1.22,0.847c-0.355,0.223-0.928,0.373-1.747,0.446
		c-0.814,0.077-1.374,0.122-1.665,0.146c-0.3,0.027-0.933,0.027-1.897,0c-0.965-0.023-1.52-0.032-1.67-0.032
		c0,5.241-1.851,9.713-5.56,13.426c-3.712,3.708-8.189,5.568-13.43,5.568c-5.242,0-9.718-1.86-13.421-5.568
		c-3.713-3.713-5.565-8.185-5.565-13.426h-28.49c0,5.241-1.851,9.713-5.555,13.426c-3.713,3.708-8.194,5.568-13.435,5.568
		c-5.242,0-9.714-1.86-13.426-5.568c-3.703-3.713-5.56-8.185-5.56-13.426h-4.75c-0.15,0-0.701,0.009-1.666,0.032
		c-0.964,0.027-1.597,0.027-1.892,0c-0.301-0.023-0.855-0.068-1.67-0.146c-0.814-0.073-1.396-0.224-1.747-0.446
		c-0.346-0.223-0.751-0.505-1.224-0.847c-0.464-0.35-0.8-0.81-1.001-1.374c-0.2-0.568-0.296-1.228-0.296-1.97
		c0-1.288,0.469-2.397,1.415-3.34c0.933-0.937,2.047-1.405,3.33-1.405V433.9c0-0.396-0.009-1.265-0.036-2.603
		c-0.023-1.333-0.023-2.271,0-2.816c0.027-0.546,0.091-1.392,0.187-2.558c0.095-1.159,0.259-2.078,0.478-2.747
		c0.232-0.669,0.573-1.424,1.042-2.261c0.478-0.842,1.033-1.579,1.669-2.229l14.696-14.682c0.933-0.941,2.184-1.729,3.739-2.379
		c1.556-0.642,3.003-0.955,4.341-0.955h11.866v-14.25c0-1.288,0.473-2.393,1.411-3.339c0.941-0.938,2.056-1.401,3.339-1.401h75.961
		c1.283,0,2.398,0.464,3.339,1.401C225.715,384.026,226.183,385.132,226.183,386.419 M112.241,429.15h28.481V410.16h-11.715
		c-0.642,0-1.188,0.223-1.633,0.665l-14.464,14.468c-0.45,0.446-0.668,0.987-0.668,1.634V429.15z M137.901,473.806
		c1.884-1.875,2.821-4.104,2.821-6.675s-0.937-4.8-2.821-6.679c-1.875-1.879-4.095-2.816-6.674-2.816
		c-2.566,0-4.792,0.938-6.675,2.816c-1.879,1.879-2.821,4.108-2.821,6.679s0.942,4.8,2.821,6.675c1.883,1.879,4.108,2.82,6.675,2.82
		C133.806,476.626,136.027,475.685,137.901,473.806 M204.372,473.806c1.875-1.875,2.821-4.104,2.821-6.675s-0.946-4.8-2.821-6.679
		s-4.104-2.816-6.679-2.816c-2.566,0-4.795,0.938-6.675,2.816c-1.879,1.879-2.816,4.108-2.816,6.679s0.937,4.8,2.816,6.675
		c1.879,1.879,4.108,2.82,6.675,2.82C200.268,476.626,202.497,475.685,204.372,473.806"/>
	<path display="inline" fill="none" stroke="#FF9933" stroke-width="16.5017" stroke-miterlimit="10" d="M226.183,386.419v75.961
		c0,0.742-0.101,1.401-0.296,1.97c-0.2,0.564-0.537,1.024-1.005,1.374c-0.469,0.342-0.878,0.624-1.22,0.847
		c-0.355,0.223-0.928,0.373-1.747,0.446c-0.814,0.077-1.374,0.122-1.665,0.146c-0.3,0.027-0.933,0.027-1.897,0
		c-0.965-0.023-1.52-0.032-1.67-0.032c0,5.241-1.851,9.713-5.56,13.426c-3.712,3.708-8.189,5.568-13.43,5.568
		c-5.242,0-9.718-1.86-13.421-5.568c-3.713-3.713-5.565-8.185-5.565-13.426h-28.49c0,5.241-1.851,9.713-5.555,13.426
		c-3.713,3.708-8.194,5.568-13.435,5.568c-5.242,0-9.714-1.86-13.426-5.568c-3.703-3.713-5.56-8.185-5.56-13.426h-4.75
		c-0.15,0-0.701,0.009-1.666,0.032c-0.964,0.027-1.597,0.027-1.892,0c-0.301-0.023-0.855-0.068-1.67-0.146
		c-0.814-0.073-1.396-0.224-1.747-0.446c-0.346-0.223-0.751-0.505-1.224-0.847c-0.464-0.35-0.8-0.81-1.001-1.374
		c-0.2-0.568-0.296-1.228-0.296-1.97c0-1.288,0.469-2.397,1.415-3.34c0.933-0.937,2.047-1.405,3.33-1.405V433.9
		c0-0.396-0.009-1.265-0.036-2.603c-0.023-1.333-0.023-2.271,0-2.816c0.027-0.546,0.091-1.392,0.187-2.558
		c0.095-1.159,0.259-2.078,0.478-2.747c0.232-0.669,0.573-1.424,1.042-2.261c0.478-0.842,1.033-1.579,1.669-2.229l14.696-14.682
		c0.933-0.941,2.184-1.729,3.739-2.379c1.556-0.642,3.003-0.955,4.341-0.955h11.866v-14.25c0-1.288,0.473-2.393,1.411-3.339
		c0.941-0.938,2.056-1.401,3.339-1.401h75.961c1.283,0,2.398,0.464,3.339,1.401C225.715,384.026,226.183,385.132,226.183,386.419z
		 M112.241,429.15h28.481V410.16h-11.715c-0.642,0-1.188,0.223-1.633,0.665l-14.464,14.468c-0.45,0.446-0.668,0.987-0.668,1.634
		V429.15z M137.901,473.806c1.884-1.875,2.821-4.104,2.821-6.675s-0.937-4.8-2.821-6.679c-1.875-1.879-4.095-2.816-6.674-2.816
		c-2.566,0-4.792,0.938-6.675,2.816c-1.879,1.879-2.821,4.108-2.821,6.679s0.942,4.8,2.821,6.675c1.883,1.879,4.108,2.82,6.675,2.82
		C133.806,476.626,136.027,475.685,137.901,473.806z M204.372,473.806c1.875-1.875,2.821-4.104,2.821-6.675s-0.946-4.8-2.821-6.679
		s-4.104-2.816-6.679-2.816c-2.566,0-4.795,0.938-6.675,2.816c-1.879,1.879-2.816,4.108-2.816,6.679s0.937,4.8,2.816,6.675
		c1.879,1.879,4.108,2.82,6.675,2.82C200.268,476.626,202.497,475.685,204.372,473.806z"/>
	<path display="inline" fill="#3F6D87" d="M340.67,321.464c-8.016,0.246-14.568,3.417-19.663,9.495h-9.937
		c-4.059,0-7.471-1.005-10.241-3.002c-2.768-2.007-4.149-4.937-4.149-8.795c0-17.457,3.061-26.183,9.194-26.183
		c0.301,0,1.374,0.519,3.229,1.556c1.857,1.042,4.264,2.088,7.23,3.158c2.972,1.06,5.909,1.587,8.831,1.587
		c3.312,0,6.598-0.563,9.864-1.706c-0.251,1.837-0.374,3.466-0.374,4.899C334.656,309.348,336.662,315.677,340.67,321.464
		 M338.586,260.558c3.713,3.717,5.568,8.189,5.568,13.435c0,5.242-1.855,9.714-5.568,13.422c-3.702,3.708-8.18,5.564-13.421,5.564
		c-5.242,0-9.718-1.856-13.431-5.564c-3.704-3.708-5.56-8.18-5.56-13.422c0-5.246,1.855-9.718,5.56-13.435
		c3.713-3.708,8.188-5.555,13.431-5.555C330.406,255.002,334.884,256.85,338.586,260.558 M420.117,368.721
		c0,5.928-1.812,10.615-5.419,14.05c-3.613,3.444-8.403,5.164-14.392,5.164h-64.833c-5.981,0-10.782-1.72-14.395-5.164
		c-3.608-3.435-5.414-8.122-5.414-14.05c0-2.625,0.087-5.186,0.264-7.685c0.174-2.498,0.52-5.191,1.038-8.084
		c0.518-2.894,1.173-5.574,1.965-8.049c0.792-2.476,1.857-4.877,3.189-7.229c1.338-2.348,2.871-4.354,4.6-6.01
		c1.729-1.66,3.85-2.979,6.342-3.972c2.498-0.987,5.251-1.479,8.272-1.479c0.49,0,1.561,0.527,3.193,1.592
		c1.629,1.06,3.435,2.248,5.41,3.558c1.979,1.311,4.627,2.498,7.938,3.567c3.312,1.06,6.652,1.592,10.01,1.592
		c3.366,0,6.705-0.533,10.019-1.592c3.312-1.069,5.959-2.257,7.935-3.567c1.982-1.31,3.785-2.498,5.419-3.558
		c1.633-1.065,2.697-1.592,3.188-1.592c3.017,0,5.773,0.491,8.271,1.479c2.499,0.992,4.614,2.312,6.343,3.972
		c1.729,1.656,3.268,3.663,4.604,6.01c1.328,2.352,2.394,4.754,3.185,7.229c0.793,2.475,1.446,5.155,1.966,8.049
		c0.52,2.893,0.864,5.586,1.037,8.084C420.027,363.535,420.117,366.096,420.117,368.721 M388.033,282.337
		c5.56,5.56,8.343,12.27,8.343,20.136c0,7.862-2.783,14.573-8.343,20.137c-5.565,5.569-12.28,8.349-20.146,8.349
		c-7.862,0-14.578-2.78-20.133-8.349c-5.564-5.564-8.349-12.275-8.349-20.137c0-7.866,2.784-14.577,8.349-20.136
		c5.555-5.569,12.271-8.345,20.133-8.345C375.753,273.992,382.468,276.768,388.033,282.337 M424.048,260.558
		c3.707,3.717,5.56,8.189,5.56,13.435c0,5.242-1.853,9.714-5.56,13.422c-3.708,3.708-8.186,5.564-13.427,5.564
		c-5.24,0-9.723-1.856-13.426-5.564c-3.712-3.708-5.564-8.18-5.564-13.422c0-5.246,1.853-9.718,5.564-13.435
		c3.703-3.708,8.186-5.555,13.426-5.555C415.863,255.002,420.34,256.85,424.048,260.558 M439.108,319.162
		c0,3.858-1.384,6.788-4.158,8.795c-2.767,1.997-6.179,3.002-10.237,3.002h-9.941c-5.091-6.078-11.646-9.249-19.654-9.495
		c3.999-5.787,6.01-12.116,6.01-18.991c0-1.433-0.127-3.062-0.373-4.899c3.267,1.142,6.552,1.706,9.868,1.706
		c2.916,0,5.86-0.527,8.822-1.587c2.967-1.069,5.383-2.116,7.233-3.158c1.857-1.037,2.931-1.556,3.23-1.556
		C436.04,292.979,439.108,301.705,439.108,319.162"/>
	<path display="inline" fill="none" stroke="#FF9933" stroke-width="4.6589" stroke-miterlimit="10" d="M340.67,321.464
		c-8.016,0.246-14.568,3.417-19.663,9.495h-9.937c-4.059,0-7.471-1.005-10.241-3.002c-2.768-2.007-4.149-4.937-4.149-8.795
		c0-17.457,3.061-26.183,9.194-26.183c0.301,0,1.374,0.519,3.229,1.556c1.857,1.042,4.264,2.088,7.23,3.158
		c2.972,1.06,5.909,1.587,8.831,1.587c3.312,0,6.598-0.563,9.864-1.706c-0.251,1.837-0.374,3.466-0.374,4.899
		C334.656,309.348,336.662,315.677,340.67,321.464z M338.586,260.558c3.713,3.717,5.568,8.189,5.568,13.435
		c0,5.242-1.855,9.714-5.568,13.422c-3.702,3.708-8.18,5.564-13.421,5.564c-5.242,0-9.718-1.856-13.431-5.564
		c-3.704-3.708-5.56-8.18-5.56-13.422c0-5.246,1.855-9.718,5.56-13.435c3.713-3.708,8.188-5.555,13.431-5.555
		C330.406,255.002,334.884,256.85,338.586,260.558z M420.117,368.721c0,5.928-1.812,10.615-5.419,14.05
		c-3.613,3.444-8.403,5.164-14.392,5.164h-64.833c-5.981,0-10.782-1.72-14.395-5.164c-3.608-3.435-5.414-8.122-5.414-14.05
		c0-2.625,0.087-5.186,0.264-7.685c0.174-2.498,0.52-5.191,1.038-8.084c0.518-2.894,1.173-5.574,1.965-8.049
		c0.792-2.476,1.857-4.877,3.189-7.229c1.338-2.348,2.871-4.354,4.6-6.01c1.729-1.66,3.85-2.979,6.342-3.972
		c2.498-0.987,5.251-1.479,8.272-1.479c0.49,0,1.561,0.527,3.193,1.592c1.629,1.06,3.435,2.248,5.41,3.558
		c1.979,1.311,4.627,2.498,7.938,3.567c3.312,1.06,6.652,1.592,10.01,1.592c3.366,0,6.705-0.533,10.019-1.592
		c3.312-1.069,5.959-2.257,7.935-3.567c1.982-1.31,3.785-2.498,5.419-3.558c1.633-1.065,2.697-1.592,3.188-1.592
		c3.017,0,5.773,0.491,8.271,1.479c2.499,0.992,4.614,2.312,6.343,3.972c1.729,1.656,3.268,3.663,4.604,6.01
		c1.328,2.352,2.394,4.754,3.185,7.229c0.793,2.475,1.446,5.155,1.966,8.049c0.52,2.893,0.864,5.586,1.037,8.084
		C420.027,363.535,420.117,366.096,420.117,368.721z M388.033,282.337c5.56,5.56,8.343,12.27,8.343,20.136
		c0,7.862-2.783,14.573-8.343,20.137c-5.565,5.569-12.28,8.349-20.146,8.349c-7.862,0-14.578-2.78-20.133-8.349
		c-5.564-5.564-8.349-12.275-8.349-20.137c0-7.866,2.784-14.577,8.349-20.136c5.555-5.569,12.271-8.345,20.133-8.345
		C375.753,273.992,382.468,276.768,388.033,282.337z M424.048,260.558c3.707,3.717,5.56,8.189,5.56,13.435
		c0,5.242-1.853,9.714-5.56,13.422c-3.708,3.708-8.186,5.564-13.427,5.564c-5.24,0-9.723-1.856-13.426-5.564
		c-3.712-3.708-5.564-8.18-5.564-13.422c0-5.246,1.853-9.718,5.564-13.435c3.703-3.708,8.186-5.555,13.426-5.555
		C415.863,255.002,420.34,256.85,424.048,260.558z M439.108,319.162c0,3.858-1.384,6.788-4.158,8.795
		c-2.767,1.997-6.179,3.002-10.237,3.002h-9.941c-5.091-6.078-11.646-9.249-19.654-9.495c3.999-5.787,6.01-12.116,6.01-18.991
		c0-1.433-0.127-3.062-0.373-4.899c3.267,1.142,6.552,1.706,9.868,1.706c2.916,0,5.86-0.527,8.822-1.587
		c2.967-1.069,5.383-2.116,7.233-3.158c1.857-1.037,2.931-1.556,3.23-1.556C436.04,292.979,439.108,301.705,439.108,319.162z"/>
	<path display="inline" fill="#563701" d="M329.91,470.37c1.288,0,2.397,0.474,3.336,1.41c0.941,0.938,1.409,2.048,1.409,3.34
		v66.089l39.765-31.82c0.837-0.688,1.828-1.042,2.966-1.042c1.284,0,2.398,0.473,3.34,1.41c0.938,0.942,1.406,2.057,1.406,3.34
		v28.112l39.764-31.82c0.837-0.688,1.824-1.042,2.967-1.042c1.287,0,2.397,0.473,3.335,1.41c0.941,0.942,1.41,2.057,1.41,3.34v85.46
		c0,1.279-0.469,2.394-1.41,3.336c-0.938,0.941-2.048,1.405-3.335,1.405H301.425c-1.283,0-2.397-0.464-3.34-1.405
		c-0.941-0.942-1.405-2.057-1.405-3.336V475.12c0-1.292,0.464-2.402,1.405-3.34c0.942-0.937,2.057-1.41,3.34-1.41H329.91z"/>
	<path display="inline" fill="none" stroke="#FF9933" stroke-width="4.6589" stroke-miterlimit="10" d="M329.91,470.37
		c1.288,0,2.397,0.474,3.336,1.41c0.941,0.938,1.409,2.048,1.409,3.34v66.089l39.765-31.82c0.837-0.688,1.828-1.042,2.966-1.042
		c1.284,0,2.398,0.473,3.34,1.41c0.938,0.942,1.406,2.057,1.406,3.34v28.112l39.764-31.82c0.837-0.688,1.824-1.042,2.967-1.042
		c1.287,0,2.397,0.473,3.335,1.41c0.941,0.942,1.41,2.057,1.41,3.34v85.46c0,1.279-0.469,2.394-1.41,3.336
		c-0.938,0.941-2.048,1.405-3.335,1.405H301.425c-1.283,0-2.397-0.464-3.34-1.405c-0.941-0.942-1.405-2.057-1.405-3.336V475.12
		c0-1.292,0.464-2.402,1.405-3.34c0.942-0.937,2.057-1.41,3.34-1.41H329.91z"/>
	<path display="inline" fill="#3EA678" d="M226.183,386.419v75.961c0,0.742-0.101,1.401-0.296,1.97
		c-0.2,0.564-0.537,1.024-1.005,1.374c-0.469,0.342-0.878,0.624-1.22,0.847c-0.355,0.223-0.928,0.373-1.747,0.446
		c-0.814,0.077-1.374,0.122-1.665,0.146c-0.3,0.027-0.933,0.027-1.897,0c-0.965-0.023-1.52-0.032-1.67-0.032
		c0,5.241-1.851,9.713-5.56,13.426c-3.712,3.708-8.189,5.568-13.43,5.568c-5.242,0-9.718-1.86-13.421-5.568
		c-3.713-3.713-5.565-8.185-5.565-13.426h-28.49c0,5.241-1.851,9.713-5.555,13.426c-3.713,3.708-8.194,5.568-13.435,5.568
		c-5.242,0-9.714-1.86-13.426-5.568c-3.703-3.713-5.56-8.185-5.56-13.426h-4.75c-0.15,0-0.701,0.009-1.666,0.032
		c-0.964,0.027-1.597,0.027-1.892,0c-0.301-0.023-0.855-0.068-1.67-0.146c-0.814-0.073-1.396-0.224-1.747-0.446
		c-0.346-0.223-0.751-0.505-1.224-0.847c-0.464-0.35-0.8-0.81-1.001-1.374c-0.2-0.568-0.296-1.228-0.296-1.97
		c0-1.288,0.469-2.397,1.415-3.34c0.933-0.937,2.047-1.405,3.33-1.405V433.9c0-0.396-0.009-1.265-0.036-2.603
		c-0.023-1.333-0.023-2.271,0-2.816c0.027-0.546,0.091-1.392,0.187-2.558c0.095-1.159,0.259-2.078,0.478-2.747
		c0.232-0.669,0.573-1.424,1.042-2.261c0.478-0.842,1.033-1.579,1.669-2.229l14.696-14.682c0.933-0.941,2.184-1.729,3.739-2.379
		c1.556-0.642,3.003-0.955,4.341-0.955h11.866v-14.25c0-1.288,0.473-2.393,1.411-3.339c0.941-0.938,2.056-1.401,3.339-1.401h75.961
		c1.283,0,2.398,0.464,3.339,1.401C225.715,384.026,226.183,385.132,226.183,386.419 M112.241,429.15h28.481V410.16h-11.715
		c-0.642,0-1.188,0.223-1.633,0.665l-14.464,14.468c-0.45,0.446-0.668,0.987-0.668,1.634V429.15z M137.901,473.806
		c1.884-1.875,2.821-4.104,2.821-6.675s-0.937-4.8-2.821-6.679c-1.875-1.879-4.095-2.816-6.674-2.816
		c-2.566,0-4.792,0.938-6.675,2.816c-1.879,1.879-2.821,4.108-2.821,6.679s0.942,4.8,2.821,6.675c1.883,1.879,4.108,2.82,6.675,2.82
		C133.806,476.626,136.027,475.685,137.901,473.806 M204.372,473.806c1.875-1.875,2.821-4.104,2.821-6.675s-0.946-4.8-2.821-6.679
		s-4.104-2.816-6.679-2.816c-2.566,0-4.795,0.938-6.675,2.816c-1.879,1.879-2.816,4.108-2.816,6.679s0.937,4.8,2.816,6.675
		c1.879,1.879,4.108,2.82,6.675,2.82C200.268,476.626,202.497,475.685,204.372,473.806"/>
	<path display="inline" fill="none" stroke="#3EA678" stroke-width="4.6589" stroke-miterlimit="10" d="M226.183,386.419v75.961
		c0,0.742-0.101,1.401-0.296,1.97c-0.2,0.564-0.537,1.024-1.005,1.374c-0.469,0.342-0.878,0.624-1.22,0.847
		c-0.355,0.223-0.928,0.373-1.747,0.446c-0.814,0.077-1.374,0.122-1.665,0.146c-0.3,0.027-0.933,0.027-1.897,0
		c-0.965-0.023-1.52-0.032-1.67-0.032c0,5.241-1.851,9.713-5.56,13.426c-3.712,3.708-8.189,5.568-13.43,5.568
		c-5.242,0-9.718-1.86-13.421-5.568c-3.713-3.713-5.565-8.185-5.565-13.426h-28.49c0,5.241-1.851,9.713-5.555,13.426
		c-3.713,3.708-8.194,5.568-13.435,5.568c-5.242,0-9.714-1.86-13.426-5.568c-3.703-3.713-5.56-8.185-5.56-13.426h-4.75
		c-0.15,0-0.701,0.009-1.666,0.032c-0.964,0.027-1.597,0.027-1.892,0c-0.301-0.023-0.855-0.068-1.67-0.146
		c-0.814-0.073-1.396-0.224-1.747-0.446c-0.346-0.223-0.751-0.505-1.224-0.847c-0.464-0.35-0.8-0.81-1.001-1.374
		c-0.2-0.568-0.296-1.228-0.296-1.97c0-1.288,0.469-2.397,1.415-3.34c0.933-0.937,2.047-1.405,3.33-1.405V433.9
		c0-0.396-0.009-1.265-0.036-2.603c-0.023-1.333-0.023-2.271,0-2.816c0.027-0.546,0.091-1.392,0.187-2.558
		c0.095-1.159,0.259-2.078,0.478-2.747c0.232-0.669,0.573-1.424,1.042-2.261c0.478-0.842,1.033-1.579,1.669-2.229l14.696-14.682
		c0.933-0.941,2.184-1.729,3.739-2.379c1.556-0.642,3.003-0.955,4.341-0.955h11.866v-14.25c0-1.288,0.473-2.393,1.411-3.339
		c0.941-0.938,2.056-1.401,3.339-1.401h75.961c1.283,0,2.398,0.464,3.339,1.401C225.715,384.026,226.183,385.132,226.183,386.419z
		 M112.241,429.15h28.481V410.16h-11.715c-0.642,0-1.188,0.223-1.633,0.665l-14.464,14.468c-0.45,0.446-0.668,0.987-0.668,1.634
		V429.15z M137.901,473.806c1.884-1.875,2.821-4.104,2.821-6.675s-0.937-4.8-2.821-6.679c-1.875-1.879-4.095-2.816-6.674-2.816
		c-2.566,0-4.792,0.938-6.675,2.816c-1.879,1.879-2.821,4.108-2.821,6.679s0.942,4.8,2.821,6.675c1.883,1.879,4.108,2.82,6.675,2.82
		C133.806,476.626,136.027,475.685,137.901,473.806z M204.372,473.806c1.875-1.875,2.821-4.104,2.821-6.675s-0.946-4.8-2.821-6.679
		s-4.104-2.816-6.679-2.816c-2.566,0-4.795,0.938-6.675,2.816c-1.879,1.879-2.816,4.108-2.816,6.679s0.937,4.8,2.816,6.675
		c1.879,1.879,4.108,2.82,6.675,2.82C200.268,476.626,202.497,475.685,204.372,473.806z"/>
</g>
<g id="Picto_x5F_Cost_x5F_Management" display="none">
	<polygon display="inline" fill="#FF9933" points="445.422,166.006 149.139,166.006 1,422.59 149.139,679.178 445.422,679.178 
		593.557,422.59 	"/>
	<path display="inline" fill="#FFFFFF" d="M193.452,492.221l-51.195,51.195l45.452,45.458l24.938-24.94
		c2.039-2.041,4.902-2.995,7.754-2.6l78.777,10.99l7.576,1.06c8.5,1.182,17.064-1.687,23.132-7.75l89.208-89.208
		c6.173-6.182,6.314-16.236,0.182-22.464c-6.699-6.795-14.336-5.627-21.972,0.101l-57.409,43.04c-1.341,1.009-1.422,3.005-0.145,4.1
		c0.445,0.387,0.891,0.796,1.313,1.214c5.713,5.718,8.44,14.259,6.213,22.95c-1.586,6.177-5.545,11.336-11.063,14.54
		c-5.504,3.219-11.936,4.087-18.1,2.455l-58.763-15.486c-0.089-0.022-0.182-0.046-0.266-0.073l-0.032-0.018
		c-1.993-0.695-3.152-2.805-2.616-4.878l0.019-0.086c0.559-2.187,2.802-3.514,4.993-2.932l58.765,15.495
		c8.346,2.187,16.882-2.791,19.077-11.127c2.169-8.218-2.659-16.832-11.113-19.072l-77.969-20.55l-12.636-3.332
		C221.788,476.135,204.991,480.685,193.452,492.221"/>
	<path display="inline" fill="#3F6D87" d="M378.623,405.395c0,36.327-29.45,65.768-65.772,65.768
		c-36.324,0-65.774-29.44-65.774-65.768s29.45-65.772,65.774-65.772C349.173,339.623,378.623,369.067,378.623,405.395"/>
	<path display="inline" fill="#F68A46" d="M307.611,445.748v-9.395c-6.628-0.301-13.062-2.078-16.818-4.255l2.97-11.572
		c4.152,2.272,9.989,4.354,16.416,4.354c5.637,0,9.496-2.178,9.496-6.137c0-3.754-3.164-6.132-10.482-8.6
		c-10.586-3.568-17.806-8.509-17.806-18.104c0-8.7,6.134-15.532,16.711-17.604v-9.4h9.699v8.705
		c6.628,0.3,11.082,1.687,14.346,3.264l-2.873,11.186c-2.572-1.1-7.122-3.373-14.24-3.373c-6.432,0-8.505,2.768-8.505,5.545
		c0,3.264,3.459,5.336,11.863,8.504c11.772,4.15,16.519,9.591,16.519,18.495c0,8.805-6.236,16.318-17.6,18.3v10.086H307.611z"/>
	<path display="inline" fill="#748994" d="M418.318,309.482c0,20-16.213,36.213-36.213,36.213s-36.209-16.214-36.209-36.213
		s16.209-36.205,36.209-36.205S418.318,289.482,418.318,309.482"/>
	<path display="inline" fill="#F68A46" d="M379.223,331.704v-5.168c-3.654-0.164-7.19-1.146-9.259-2.346l1.632-6.368
		c2.286,1.246,5.5,2.386,9.041,2.386c3.104,0,5.223-1.195,5.223-3.368c0-2.077-1.736-3.382-5.769-4.745
		c-5.827-1.959-9.805-4.682-9.805-9.964c0-4.791,3.378-8.545,9.205-9.695v-5.173h5.341v4.791c3.646,0.168,6.1,0.932,7.891,1.8
		l-1.577,6.155c-1.414-0.595-3.923-1.854-7.841-1.854c-3.536,0-4.682,1.527-4.682,3.05c0,1.795,1.899,2.941,6.531,4.682
		c6.478,2.291,9.096,5.286,9.096,10.19c0,4.85-3.428,8.981-9.695,10.077v5.55H379.223z"/>
</g>
<g id="Picto_x5F_Contract_x5F_Management" display="none">
	<polygon display="inline" fill="#FF9933" points="445.009,166.006 148.733,166.006 0.593,422.59 148.733,679.178 445.009,679.178 
		593.153,422.59 	"/>
	<path display="inline" fill="#E6E7E7" d="M460.099,323.786v183.989c0,7.436-2.654,13.809-7.949,19.104
		c-5.3,5.301-11.668,7.946-19.109,7.946h-91.989c0,4.177,0.899,8.54,2.7,13.108c1.809,4.563,3.608,8.568,5.418,12.009
		c1.8,3.433,2.699,5.887,2.699,7.351c0,2.936-1.072,5.473-3.209,7.613c-2.141,2.141-4.682,3.209-7.608,3.209h-86.583
		c-2.934,0-5.47-1.068-7.611-3.209c-2.141-2.141-3.211-4.678-3.211-7.613c0-1.578,0.902-4.055,2.709-7.441
		c1.798-3.377,3.603-7.327,5.409-11.836c1.8-4.505,2.705-8.904,2.705-13.19h-91.992c-7.443,0-13.809-2.646-19.106-7.946
		c-5.302-5.295-7.95-11.668-7.95-19.104V323.786c0-7.44,2.647-13.804,7.95-19.109c5.297-5.3,11.664-7.95,19.106-7.95H433.04
		c7.441,0,13.81,2.65,19.109,7.95C457.445,309.982,460.099,316.346,460.099,323.786 M438.454,464.48V323.786
		c0-1.464-0.536-2.727-1.609-3.805c-1.072-1.068-2.341-1.609-3.805-1.609H162.475c-1.466,0-2.732,0.541-3.802,1.609
		c-1.075,1.078-1.611,2.341-1.611,3.805V464.48c0,1.463,0.537,2.731,1.611,3.805c1.07,1.072,2.336,1.604,3.802,1.604H433.04
		c1.464,0,2.732-0.531,3.805-1.604C437.918,467.212,438.454,465.943,438.454,464.48"/>
	<path display="inline" fill="#3EA678" d="M198.836,459.78h-8.852c-1.195,0-2.239-0.441-3.109-1.313
		c-0.875-0.877-1.318-1.909-1.318-3.114v-115.08c0-1.2,0.443-2.232,1.318-3.114c0.87-0.877,1.914-1.313,3.109-1.313h8.852
		c1.203,0,2.234,0.436,3.114,1.313c0.875,0.882,1.314,1.914,1.314,3.114v115.08c0,1.205-0.439,2.237-1.314,3.114
		C201.071,459.339,200.039,459.78,198.836,459.78 M225.395,459.78h-8.852c-1.2,0-2.234-0.441-3.114-1.313
		c-0.875-0.877-1.313-1.909-1.313-3.114v-88.526c0-1.195,0.438-2.236,1.313-3.109c0.879-0.877,1.914-1.314,3.114-1.314h8.852
		c1.202,0,2.234,0.437,3.114,1.314c0.87,0.873,1.313,1.914,1.313,3.109v88.526c0,1.205-0.443,2.237-1.313,3.114
		C227.629,459.339,226.597,459.78,225.395,459.78 M251.954,459.78h-8.852c-1.202,0-2.239-0.441-3.113-1.313
		c-0.875-0.877-1.318-1.909-1.318-3.114V349.127c0-1.205,0.443-2.241,1.318-3.109c0.875-0.882,1.911-1.318,3.113-1.318h8.852
		c1.196,0,2.229,0.436,3.109,1.318c0.875,0.868,1.313,1.905,1.313,3.109v106.226c0,1.205-0.439,2.237-1.313,3.114
		C254.183,459.339,253.15,459.78,251.954,459.78 M278.508,459.78h-8.848c-1.202,0-2.238-0.441-3.113-1.313
		c-0.88-0.877-1.318-1.909-1.318-3.114v-79.667c0-1.205,0.438-2.241,1.318-3.113c0.875-0.882,1.911-1.318,3.113-1.318h8.848
		c1.2,0,2.234,0.437,3.114,1.318c0.875,0.873,1.313,1.909,1.313,3.113v79.667c0,1.205-0.438,2.237-1.313,3.114
		C280.742,459.339,279.708,459.78,278.508,459.78"/>
	<path display="inline" fill="#882F21" d="M363.228,395.176l36.436-44.068c24.337,20.127,27.755,56.172,7.628,80.504
		c-4.027,4.868-8.087,8.454-13.418,11.836L363.228,395.176z"/>
	<path display="inline" fill="none" stroke="#FFFFFF" stroke-width="8" stroke-miterlimit="10" d="M363.228,395.176l36.436-44.068
		c24.337,20.127,27.755,56.172,7.628,80.504c-4.027,4.868-8.087,8.454-13.418,11.836L363.228,395.176z"/>
	<path display="inline" fill="#0F4D79" d="M363.228,395.176l30.646,48.272c-21.327,13.541-47.618,11.892-67.086-4.209
		L363.228,395.176z"/>
	<path display="inline" fill="none" stroke="#FFFFFF" stroke-width="8" stroke-miterlimit="10" d="M363.228,395.176l30.646,48.272
		c-21.327,13.541-47.618,11.892-67.086-4.209L363.228,395.176z"/>
	<path display="inline" fill="#3EA678" d="M306.16,391.595c-1.191,18.913,6.018,35.577,20.627,47.645l36.44-44.059l36.436-44.067
		c-9.736-8.055-20.254-12.214-32.858-13.009C335.287,336.132,308.133,360.081,306.16,391.595"/>
	<path display="inline" fill="none" stroke="#FFFFFF" stroke-width="8" stroke-miterlimit="10" d="M306.16,391.595
		c-1.191,18.913,6.018,35.577,20.627,47.645l36.44-44.059l36.436-44.067c-9.736-8.055-20.254-12.214-32.858-13.009
		C335.287,336.132,308.133,360.081,306.16,391.595z"/>
</g>
<g id="Picto_x5F_Personal_x5F_Development" display="none">
	<polygon display="inline" fill="#FF9933" points="445.439,165.766 149.16,165.766 1.021,422.349 149.16,678.937 445.439,678.937 
		593.577,422.349 	"/>
	<path display="inline" fill-rule="evenodd" clip-rule="evenodd" fill="#3F6D87" d="M350.522,359.245l-29.832-1.836l-38.286,14.022
		c-1.723,0.632-3.509,0.923-5.291,0.864c-0.4,2.359-1.896,4.481-4.254,5.463l-5.977,2.582l8.968,20.931
		c1.496,3.5-0.172,7.582-3.623,9.082l-45.468,19.481c-3.45,1.5-7.532-0.173-9.027-3.622l-30.809-71.854
		c-1.495-3.504,0.114-7.582,3.623-9.082l45.408-19.486c3.509-1.496,7.591,0.113,9.082,3.618l8.968,20.927l5.982-2.586
		c2.241-0.922,4.768-0.632,6.723,0.578c1.496-1.728,3.45-3.104,5.809-3.973l32.704-11.95c7.359-2.705,15.409-3.909,23.227-3.396
		l46.618,2.873c5.519,0.35,11.095,2.245,15.636,5.404l11.441,7.818c4.481,2.991,8.045,7.414,10.341,12.305l19.031,40.527
		l36.791-17.309c7.186-3.391,15.809-0.286,19.199,6.9c3.337,7.187,0.223,15.809-6.959,19.2l-50.35,23.682
		c-6.095,2.822-15.522-0.573-18.399-6.664l-15.805-33.568l-37.54,55.004l45.645,31.158c6.036,4.082,9.541,12.941,7.986,20.063
		l-14.545,67.313c-1.95,9.022-10.978,14.827-20,12.881c-9.082-1.954-14.886-10.985-12.932-20.004l12.531-57.895l-55.244-37.764
		l-19.027,27.822c-4.31,6.327-11.841,11.041-19.432,12.128l-61.449,8.8c-9.141,1.322-17.764-5.123-19.027-14.318
		c-1.322-9.141,5.118-17.7,14.259-19.027l59.149-8.509L350.522,359.245z M271.309,370.913c-3.332-1.55-6.037-4.364-7.414-8.041
		c-1.15-3.168-1.091-6.441-0.118-9.436c-0.4-0.341-0.973-0.514-1.496-0.282l-5.973,2.582l8.218,19.2l6.037-2.527
		C271.136,372.122,271.427,371.549,271.309,370.913 M442.439,325.154c-9.022,13.223-27.072,16.613-40.245,7.591
		c-13.214-9.027-16.604-27.018-7.582-40.24c9.027-13.164,27.019-16.613,40.241-7.586
		C448.016,293.941,451.456,311.991,442.439,325.154"/>
	<path display="inline" fill-rule="evenodd" clip-rule="evenodd" fill="#3F6D87" d="M340.698,303.323l63.177,43.104
		c1.509,1.027,1.286,4.009-0.495,6.623c-1.782,2.609-4.473,3.899-5.986,2.873l-63.177-43.104c-1.509-1.032-1.286-4.005,0.491-6.623
		C336.49,303.591,339.185,302.291,340.698,303.323"/>
	<path display="inline" fill-rule="evenodd" clip-rule="evenodd" fill="#E6E7E7" d="M117.629,426.867h66.108
		c1.582,0,2.873,2.591,2.873,5.75c0,3.158-1.291,5.75-2.873,5.75h-66.108c-1.582,0-2.873-2.592-2.873-5.75
		C114.756,429.458,116.047,426.867,117.629,426.867"/>
	<path display="inline" fill-rule="evenodd" clip-rule="evenodd" fill="#FFFFFF" d="M68.652,398.126h109.222
		c1.577,0,2.873,2.591,2.873,5.75c0,3.159-1.295,5.75-2.873,5.75H68.652c-1.582,0-2.873-2.591-2.873-5.75
		C65.779,400.717,67.07,398.126,68.652,398.126"/>
</g>
<g id="Picto_x5F_Legal" display="none">
	<polygon display="inline" fill="#FF9933" points="444.417,166.006 148.139,166.006 0,422.59 148.139,679.178 444.417,679.178 
		592.558,422.59 	"/>
	<path display="inline" fill="#3F6D87" d="M217.443,393.544h122.494c1.346,0,2.432,1.082,2.432,2.432v5.745
		c0,1.35-1.086,2.432-2.432,2.432H217.443c-1.345,0-2.432-1.082-2.432-2.432v-5.745
		C215.011,394.626,216.098,393.544,217.443,393.544 M217.443,414.767c-1.345,0-2.432,1.091-2.432,2.441v5.736
		c0,1.35,1.086,2.44,2.432,2.44h114.853l10.613-10.618H217.443z M311.159,446.607c0.564-0.568,1.051-1.141,1.619-1.709l8.904-8.899
		h-104.24c-1.345,0-2.432,1.081-2.432,2.432v5.745c0,1.35,1.086,2.432,2.432,2.432H311.159z M268.079,348.649
		c0,1.35,1.086,2.441,2.432,2.441h69.426c1.346,0,2.432-1.091,2.432-2.441v-5.736c0-1.345-1.086-2.44-2.432-2.44h-69.426
		c-1.346,0-2.432,1.095-2.432,2.44V348.649z M270.511,329.859h69.426c1.346,0,2.432-1.082,2.432-2.432v-5.746
		c0-1.346-1.086-2.432-2.432-2.432h-69.426c-1.346,0-2.432,1.086-2.432,2.432v5.746
		C268.079,328.777,269.165,329.859,270.511,329.859 M220.107,520.902c2.946,0.036,5.414-2.168,5.518-5.1
		c0.682-17.455,4.932-33.582,9.246-36.796c1.614,4.95,2.146,18.368,2.445,25.986c0.723,18.218,1.055,26.522,8.455,26.522
		c7.827,0,12.231-7.163,15.436-12.409c0.382-0.627,0.859-1.404,1.336-2.122c0.437,0.736,0.868,1.531,1.214,2.146
		c2.604,4.781,9.377,12.386,18.913,12.386c1.019,0,2.032-0.382,2.809-1.163l4.746-4.732c11.39,2.473,37.304-12.927,63.826-39.449
		l9.732-9.731l-30.021-30.009l-9.723,9.723c-26.537,26.536-41.928,52.444-39.441,63.854l-1.936,1.937
		c-6.127,0-8.137-3.318-10.673-7.914c-1.695-3.1-2.555-6.6-6.068-8.427c-6.731-3.454-11.149,3.682-13.763,7.978
		c-0.927,1.495-2.177,3.55-3.441,5.113c-0.396-3.914-0.623-9.572-0.8-14.127c-0.836-21.332-1.459-36.728-11.586-36.728
		c-18.059,0-20.863,36.286-21.309,47.55C214.907,518.312,217.184,520.793,220.107,520.902"/>
	<path display="inline" fill="#3F6D87" d="M374.21,547.434c0,2.937-2.373,5.313-5.305,5.313h-180.43
		c-2.932,0-5.305-2.377-5.305-5.313V351.086h31.841c11.723,0,21.227-9.504,21.227-21.227v-31.84h132.667
		c2.932,0,5.305,2.373,5.305,5.313v80.135l21.227-21.227v-64.222c0-11.718-9.504-21.223-21.227-21.223H234.411
		c-5.627,0-11.027,2.236-15.009,6.214l-51.24,51.245c-3.981,3.986-6.218,9.381-6.218,15.009v203.484
		c0,11.718,9.5,21.223,21.227,21.223h191.04c11.723,0,21.227-9.505,21.227-21.223v-85.453l-21.227,21.227V547.434z"/>
	<path display="inline" fill="#3EA678" d="M488.841,378.667c-2.791-2.777-7.342-2.777-10.119-0.009l-6.299,6.305l-8.574-8.582
		c6.332-6.327,10.291-10.281,10.291-10.281c8.281-8.291,8.281-21.741,0-30.018c-8.291-8.295-21.736-8.295-30.027,0L342.009,438.181
		l30.027,30.004c24.482-24.477,59.658-59.645,81.695-81.676l8.562,8.577l-50.559,50.554c-2.775,2.791-2.775,7.322,0,10.149
		c2.811,2.791,37.355-27.223,77.123-66.981C491.691,385.963,491.636,381.485,488.841,378.667"/>
</g>
</svg>
